<svg xmlns="http://www.w3.org/2000/svg" width="19.031" height="17.469" viewBox="0 0 19.031 17.469">
  <defs>
    <style>
      .cls-1 {
        fill: #353535;
        fill-rule: evenodd;
      }
    </style>
  </defs>
  <path id="k_복사" data-name="k 복사" class="cls-1" d="M7.7,6.443L7.064,8.263H8.359L7.722,6.446ZM9.61,0.057C4.359,0.057.1,3.422,0.1,7.574c0,2.7,1.8,5.07,4.51,6.394-0.2.743-.72,2.69-0.825,3.106-0.129.517,0.19,0.51,0.4,0.371,0.164-.109,2.605-1.768,3.659-2.485a12.041,12.041,0,0,0,1.765.13c5.251,0,9.508-3.366,9.508-7.516S14.861,0.057,9.61.057ZM4.924,9.636a0.447,0.447,0,0,1-.455.45h-0.1a0.476,0.476,0,0,1-.334-0.129A0.46,0.46,0,0,1,3.89,9.636V6.293H3a0.468,0.468,0,1,1,0-.936h2.78a0.468,0.468,0,1,1,0,.936H4.924V9.636Zm4.557,0.437A0.465,0.465,0,0,1,8.9,9.783L8.66,9.1h-1.9l-0.236.682a0.463,0.463,0,0,1-.586.286,0.457,0.457,0,0,1-.281-0.584L7.023,5.831A0.6,0.6,0,0,1,7.05,5.769a0.661,0.661,0,0,1,.674-0.477,0.681,0.681,0,0,1,.649.4l0,0,1.385,3.79A0.46,0.46,0,0,1,9.482,10.073Zm2.984,0.013h-1.89a0.437,0.437,0,0,1-.429-0.439,0.48,0.48,0,0,1,.007-0.087,0.563,0.563,0,0,1-.009-0.087V5.806a0.517,0.517,0,0,1,1.034,0V9.2h1.286A0.444,0.444,0,0,1,12.465,10.086Zm4.04-.079a0.458,0.458,0,0,1-.642-0.091L14.489,8.127l-0.3.293V9.586a0.493,0.493,0,1,1-.985,0V5.806a0.493,0.493,0,1,1,.985,0V7.142l1.624-1.611a0.459,0.459,0,0,1,.645,0,0.452,0.452,0,0,1,0,.638l-1.3,1.3L16.6,9.364A0.459,0.459,0,0,1,16.506,10.007Z" transform="translate(-0.094 -0.063)"/>
</svg>
